<svg xmlns="http://www.w3.org/2000/svg" xmlns:xlink="http://www.w3.org/1999/xlink" width="456" zoomAndPan="magnify" viewBox="0 0 342 74.999997" height="100" preserveAspectRatio="xMidYMid meet" version="1.0"><defs><filter x="0%" y="0%" width="100%" height="100%" id="587ba92bbf"><feColorMatrix values="0 0 0 0 1 0 0 0 0 1 0 0 0 0 1 0 0 0 1 0" color-interpolation-filters="sRGB"/></filter><g/><mask id="e00d3b7d05"><g filter="url(#587ba92bbf)"><rect x="-34.2" width="410.4" fill="#000000" y="-7.5" height="89.999996" fill-opacity="0.2471"/></g></mask><clipPath id="32aff76a8c"><rect x="0" width="88" y="0" height="27"/></clipPath><mask id="cff87baff6"><g filter="url(#587ba92bbf)"><rect x="-34.2" width="410.4" fill="#000000" y="-7.5" height="89.999996" fill-opacity="0.2471"/></g></mask><clipPath id="e6a8b551ad"><rect x="0" width="87" y="0" height="27"/></clipPath><mask id="a211708142"><g filter="url(#587ba92bbf)"><rect x="-34.2" width="410.4" fill="#000000" y="-7.5" height="89.999996" fill-opacity="0.2471"/></g></mask><clipPath id="e8f70e94a0"><rect x="0" width="87" y="0" height="27"/></clipPath><mask id="e6b7fae285"><g filter="url(#587ba92bbf)"><rect x="-34.2" width="410.4" fill="#000000" y="-7.5" height="89.999996" fill-opacity="0.2471"/></g></mask><clipPath id="81795d57ce"><path d="M 2 0.238281 L 13 0.238281 L 13 21 L 2 21 Z M 2 0.238281 " clip-rule="nonzero"/></clipPath><clipPath id="ee00c115d7"><path d="M 44 0.238281 L 49 0.238281 L 49 21 L 44 21 Z M 44 0.238281 " clip-rule="nonzero"/></clipPath><clipPath id="e7e8ee2bee"><rect x="0" width="88" y="0" height="27"/></clipPath></defs><rect x="-34.2" width="410.4" fill="#ffffff" y="-7.5" height="89.999996" fill-opacity="1"/><rect x="-34.2" width="410.4" fill="#ffffff" y="-7.5" height="89.999996" fill-opacity="1"/><rect x="-34.2" width="410.4" fill="#865124" y="-7.5" height="89.999996" fill-opacity="1"/><g mask="url(#e00d3b7d05)"><g transform="matrix(1, 0, 0, 1, 12, 4)"><g clip-path="url(#32aff76a8c)"><g fill="#000000" fill-opacity="1"><g transform="translate(0.744182, 20.458657)"><g><path d="M 1.75 0 L 1.75 -19.15625 L 5.078125 -19.15625 L 5.078125 -8.46875 L 5.046875 -8.890625 C 5.421875 -9.546875 5.945312 -10.082031 6.625 -10.5 C 7.3125 -10.914062 8.144531 -11.125 9.125 -11.125 C 10.132812 -11.125 10.972656 -10.828125 11.640625 -10.234375 C 12.316406 -9.640625 12.660156 -8.875 12.671875 -7.9375 L 12.671875 0 L 9.28125 0 L 9.28125 -6.671875 C 9.257812 -7.140625 9.128906 -7.515625 8.890625 -7.796875 C 8.660156 -8.085938 8.269531 -8.234375 7.71875 -8.234375 C 7.195312 -8.234375 6.742188 -8.0625 6.359375 -7.71875 C 5.972656 -7.382812 5.671875 -6.925781 5.453125 -6.34375 C 5.242188 -5.757812 5.140625 -5.085938 5.140625 -4.328125 L 5.140625 0 Z M 1.75 0 "/></g></g></g><g fill="#000000" fill-opacity="1"><g transform="translate(15.166546, 20.458657)"><g><path d="M 6.96875 0.296875 C 5.675781 0.296875 4.578125 0.0507812 3.671875 -0.4375 C 2.773438 -0.925781 2.09375 -1.597656 1.625 -2.453125 C 1.15625 -3.304688 0.921875 -4.296875 0.921875 -5.421875 C 0.921875 -6.484375 1.195312 -7.441406 1.75 -8.296875 C 2.300781 -9.160156 3.035156 -9.847656 3.953125 -10.359375 C 4.878906 -10.867188 5.910156 -11.125 7.046875 -11.125 C 8.566406 -11.125 9.816406 -10.679688 10.796875 -9.796875 C 11.773438 -8.910156 12.410156 -7.632812 12.703125 -5.96875 L 4.4375 -3.34375 L 3.6875 -5.203125 L 9.65625 -7.21875 L 8.953125 -6.890625 C 8.828125 -7.316406 8.597656 -7.6875 8.265625 -8 C 7.929688 -8.3125 7.4375 -8.46875 6.78125 -8.46875 C 6.269531 -8.46875 5.820312 -8.347656 5.4375 -8.109375 C 5.0625 -7.878906 4.773438 -7.550781 4.578125 -7.125 C 4.378906 -6.695312 4.28125 -6.191406 4.28125 -5.609375 C 4.28125 -4.941406 4.398438 -4.382812 4.640625 -3.9375 C 4.878906 -3.5 5.207031 -3.164062 5.625 -2.9375 C 6.050781 -2.707031 6.523438 -2.59375 7.046875 -2.59375 C 7.410156 -2.59375 7.765625 -2.65625 8.109375 -2.78125 C 8.460938 -2.914062 8.8125 -3.085938 9.15625 -3.296875 L 10.65625 -0.78125 C 10.09375 -0.457031 9.484375 -0.195312 8.828125 0 C 8.171875 0.195312 7.550781 0.296875 6.96875 0.296875 Z M 6.96875 0.296875 "/></g></g></g><g fill="#000000" fill-opacity="1"><g transform="translate(28.593426, 20.458657)"><g><path d="M 6.21875 0.296875 C 5.226562 0.296875 4.332031 0.0976562 3.53125 -0.296875 C 2.726562 -0.691406 2.09375 -1.300781 1.625 -2.125 C 1.15625 -2.957031 0.921875 -4.015625 0.921875 -5.296875 C 0.921875 -6.492188 1.160156 -7.53125 1.640625 -8.40625 C 2.128906 -9.28125 2.769531 -9.953125 3.5625 -10.421875 C 4.363281 -10.898438 5.207031 -11.140625 6.09375 -11.140625 C 7.144531 -11.140625 7.941406 -10.960938 8.484375 -10.609375 C 9.023438 -10.265625 9.472656 -9.882812 9.828125 -9.46875 L 9.6875 -9.0625 L 10 -10.609375 L 13.15625 -10.609375 L 13.15625 0 L 9.765625 0 L 9.765625 -2.3125 L 10.03125 -1.578125 C 10 -1.578125 9.898438 -1.484375 9.734375 -1.296875 C 9.578125 -1.109375 9.335938 -0.890625 9.015625 -0.640625 C 8.703125 -0.390625 8.3125 -0.171875 7.84375 0.015625 C 7.382812 0.203125 6.84375 0.296875 6.21875 0.296875 Z M 7.1875 -2.484375 C 7.59375 -2.484375 7.957031 -2.539062 8.28125 -2.65625 C 8.601562 -2.78125 8.882812 -2.957031 9.125 -3.1875 C 9.375 -3.425781 9.585938 -3.722656 9.765625 -4.078125 L 9.765625 -6.671875 C 9.628906 -7.035156 9.429688 -7.34375 9.171875 -7.59375 C 8.921875 -7.84375 8.613281 -8.035156 8.25 -8.171875 C 7.894531 -8.304688 7.5 -8.375 7.0625 -8.375 C 6.582031 -8.375 6.132812 -8.25 5.71875 -8 C 5.300781 -7.75 4.972656 -7.40625 4.734375 -6.96875 C 4.492188 -6.53125 4.375 -6.03125 4.375 -5.46875 C 4.375 -4.894531 4.5 -4.378906 4.75 -3.921875 C 5.007812 -3.472656 5.351562 -3.117188 5.78125 -2.859375 C 6.21875 -2.609375 6.6875 -2.484375 7.1875 -2.484375 Z M 7.1875 -2.484375 "/></g></g></g><g fill="#000000" fill-opacity="1"><g transform="translate(43.501397, 20.458657)"><g><path d="M 1.75 -19.15625 L 5.140625 -19.15625 L 5.140625 0 L 1.75 0 Z M 1.75 -19.15625 "/></g></g></g><g fill="#000000" fill-opacity="1"><g transform="translate(50.396935, 20.458657)"><g><path d="M 1.75 -10.609375 L 5.140625 -10.609375 L 5.140625 0 L 1.75 0 Z M 2.046875 -14.859375 C 2.046875 -15.359375 2.242188 -15.769531 2.640625 -16.09375 C 3.035156 -16.414062 3.457031 -16.578125 3.90625 -16.578125 C 4.363281 -16.578125 4.78125 -16.414062 5.15625 -16.09375 C 5.539062 -15.769531 5.734375 -15.359375 5.734375 -14.859375 C 5.734375 -14.359375 5.539062 -13.945312 5.15625 -13.625 C 4.78125 -13.3125 4.363281 -13.15625 3.90625 -13.15625 C 3.457031 -13.15625 3.035156 -13.3125 2.640625 -13.625 C 2.242188 -13.945312 2.046875 -14.359375 2.046875 -14.859375 Z M 2.046875 -14.859375 "/></g></g></g><g fill="#000000" fill-opacity="1"><g transform="translate(57.292473, 20.458657)"><g><path d="M 4.828125 -10.609375 L 5.09375 -8.71875 L 5.046875 -8.890625 C 5.421875 -9.546875 5.945312 -10.082031 6.625 -10.5 C 7.3125 -10.914062 8.144531 -11.125 9.125 -11.125 C 10.132812 -11.125 10.972656 -10.828125 11.640625 -10.234375 C 12.316406 -9.640625 12.660156 -8.875 12.671875 -7.9375 L 12.671875 0 L 9.28125 0 L 9.28125 -6.671875 C 9.257812 -7.140625 9.128906 -7.515625 8.890625 -7.796875 C 8.660156 -8.085938 8.269531 -8.234375 7.71875 -8.234375 C 7.195312 -8.234375 6.742188 -8.0625 6.359375 -7.71875 C 5.972656 -7.382812 5.671875 -6.925781 5.453125 -6.34375 C 5.242188 -5.757812 5.140625 -5.085938 5.140625 -4.328125 L 5.140625 0 L 1.75 0 L 1.75 -10.609375 Z M 4.828125 -10.609375 "/></g></g></g><g fill="#000000" fill-opacity="1"><g transform="translate(71.714836, 20.458657)"><g><path d="M 7.234375 5.34375 C 6.273438 5.34375 5.46875 5.226562 4.8125 5 C 4.164062 4.769531 3.613281 4.492188 3.15625 4.171875 C 2.707031 3.847656 2.300781 3.539062 1.9375 3.25 L 3.9375 0.921875 C 4.300781 1.265625 4.726562 1.59375 5.21875 1.90625 C 5.71875 2.21875 6.375 2.375 7.1875 2.375 C 7.71875 2.375 8.210938 2.28125 8.671875 2.09375 C 9.140625 1.914062 9.515625 1.644531 9.796875 1.28125 C 10.078125 0.925781 10.21875 0.484375 10.21875 -0.046875 L 10.21875 -2.375 L 10.34375 -1.765625 C 10.082031 -1.222656 9.613281 -0.742188 8.9375 -0.328125 C 8.257812 0.0859375 7.367188 0.296875 6.265625 0.296875 C 5.304688 0.296875 4.414062 0.0507812 3.59375 -0.4375 C 2.78125 -0.9375 2.128906 -1.609375 1.640625 -2.453125 C 1.160156 -3.304688 0.921875 -4.273438 0.921875 -5.359375 C 0.921875 -6.484375 1.179688 -7.476562 1.703125 -8.34375 C 2.222656 -9.207031 2.894531 -9.890625 3.71875 -10.390625 C 4.539062 -10.890625 5.414062 -11.140625 6.34375 -11.140625 C 7.257812 -11.140625 8.050781 -11.003906 8.71875 -10.734375 C 9.394531 -10.472656 9.90625 -10.148438 10.25 -9.765625 L 10.125 -9.453125 L 10.484375 -10.609375 L 13.625 -10.609375 L 13.625 0 C 13.625 1.03125 13.332031 1.945312 12.75 2.75 C 12.164062 3.550781 11.390625 4.179688 10.421875 4.640625 C 9.460938 5.109375 8.398438 5.34375 7.234375 5.34375 Z M 4.34375 -5.46875 C 4.34375 -4.894531 4.472656 -4.378906 4.734375 -3.921875 C 4.992188 -3.472656 5.34375 -3.117188 5.78125 -2.859375 C 6.226562 -2.609375 6.726562 -2.484375 7.28125 -2.484375 C 7.75 -2.484375 8.164062 -2.539062 8.53125 -2.65625 C 8.894531 -2.78125 9.21875 -2.957031 9.5 -3.1875 C 9.789062 -3.425781 10.03125 -3.722656 10.21875 -4.078125 L 10.21875 -6.671875 C 10.070312 -7.035156 9.851562 -7.34375 9.5625 -7.59375 C 9.269531 -7.84375 8.929688 -8.035156 8.546875 -8.171875 C 8.171875 -8.304688 7.75 -8.375 7.28125 -8.375 C 6.726562 -8.375 6.226562 -8.25 5.78125 -8 C 5.34375 -7.75 4.992188 -7.40625 4.734375 -6.96875 C 4.472656 -6.53125 4.34375 -6.03125 4.34375 -5.46875 Z M 4.34375 -5.46875 "/></g></g></g></g></g></g><g mask="url(#cff87baff6)"><g transform="matrix(1, 0, 0, 1, 184, 4)"><g clip-path="url(#e6a8b551ad)"><g fill="#000000" fill-opacity="1"><g transform="translate(0.130104, 20.458657)"><g><path d="M 1.75 0 L 1.75 -19.15625 L 5.078125 -19.15625 L 5.078125 -8.46875 L 5.046875 -8.890625 C 5.421875 -9.546875 5.945312 -10.082031 6.625 -10.5 C 7.3125 -10.914062 8.144531 -11.125 9.125 -11.125 C 10.132812 -11.125 10.972656 -10.828125 11.640625 -10.234375 C 12.316406 -9.640625 12.660156 -8.875 12.671875 -7.9375 L 12.671875 0 L 9.28125 0 L 9.28125 -6.671875 C 9.257812 -7.140625 9.128906 -7.515625 8.890625 -7.796875 C 8.660156 -8.085938 8.269531 -8.234375 7.71875 -8.234375 C 7.195312 -8.234375 6.742188 -8.0625 6.359375 -7.71875 C 5.972656 -7.382812 5.671875 -6.925781 5.453125 -6.34375 C 5.242188 -5.757812 5.140625 -5.085938 5.140625 -4.328125 L 5.140625 0 Z M 1.75 0 "/></g></g></g><g fill="#000000" fill-opacity="1"><g transform="translate(14.552467, 20.458657)"><g><path d="M 6.96875 0.296875 C 5.675781 0.296875 4.578125 0.0507812 3.671875 -0.4375 C 2.773438 -0.925781 2.09375 -1.597656 1.625 -2.453125 C 1.15625 -3.304688 0.921875 -4.296875 0.921875 -5.421875 C 0.921875 -6.484375 1.195312 -7.441406 1.75 -8.296875 C 2.300781 -9.160156 3.035156 -9.847656 3.953125 -10.359375 C 4.878906 -10.867188 5.910156 -11.125 7.046875 -11.125 C 8.566406 -11.125 9.816406 -10.679688 10.796875 -9.796875 C 11.773438 -8.910156 12.410156 -7.632812 12.703125 -5.96875 L 4.4375 -3.34375 L 3.6875 -5.203125 L 9.65625 -7.21875 L 8.953125 -6.890625 C 8.828125 -7.316406 8.597656 -7.6875 8.265625 -8 C 7.929688 -8.3125 7.4375 -8.46875 6.78125 -8.46875 C 6.269531 -8.46875 5.820312 -8.347656 5.4375 -8.109375 C 5.0625 -7.878906 4.773438 -7.550781 4.578125 -7.125 C 4.378906 -6.695312 4.28125 -6.191406 4.28125 -5.609375 C 4.28125 -4.941406 4.398438 -4.382812 4.640625 -3.9375 C 4.878906 -3.5 5.207031 -3.164062 5.625 -2.9375 C 6.050781 -2.707031 6.523438 -2.59375 7.046875 -2.59375 C 7.410156 -2.59375 7.765625 -2.65625 8.109375 -2.78125 C 8.460938 -2.914062 8.8125 -3.085938 9.15625 -3.296875 L 10.65625 -0.78125 C 10.09375 -0.457031 9.484375 -0.195312 8.828125 0 C 8.171875 0.195312 7.550781 0.296875 6.96875 0.296875 Z M 6.96875 0.296875 "/></g></g></g><g fill="#000000" fill-opacity="1"><g transform="translate(27.979348, 20.458657)"><g><path d="M 6.21875 0.296875 C 5.226562 0.296875 4.332031 0.0976562 3.53125 -0.296875 C 2.726562 -0.691406 2.09375 -1.300781 1.625 -2.125 C 1.15625 -2.957031 0.921875 -4.015625 0.921875 -5.296875 C 0.921875 -6.492188 1.160156 -7.53125 1.640625 -8.40625 C 2.128906 -9.28125 2.769531 -9.953125 3.5625 -10.421875 C 4.363281 -10.898438 5.207031 -11.140625 6.09375 -11.140625 C 7.144531 -11.140625 7.941406 -10.960938 8.484375 -10.609375 C 9.023438 -10.265625 9.472656 -9.882812 9.828125 -9.46875 L 9.6875 -9.0625 L 10 -10.609375 L 13.15625 -10.609375 L 13.15625 0 L 9.765625 0 L 9.765625 -2.3125 L 10.03125 -1.578125 C 10 -1.578125 9.898438 -1.484375 9.734375 -1.296875 C 9.578125 -1.109375 9.335938 -0.890625 9.015625 -0.640625 C 8.703125 -0.390625 8.3125 -0.171875 7.84375 0.015625 C 7.382812 0.203125 6.84375 0.296875 6.21875 0.296875 Z M 7.1875 -2.484375 C 7.59375 -2.484375 7.957031 -2.539062 8.28125 -2.65625 C 8.601562 -2.78125 8.882812 -2.957031 9.125 -3.1875 C 9.375 -3.425781 9.585938 -3.722656 9.765625 -4.078125 L 9.765625 -6.671875 C 9.628906 -7.035156 9.429688 -7.34375 9.171875 -7.59375 C 8.921875 -7.84375 8.613281 -8.035156 8.25 -8.171875 C 7.894531 -8.304688 7.5 -8.375 7.0625 -8.375 C 6.582031 -8.375 6.132812 -8.25 5.71875 -8 C 5.300781 -7.75 4.972656 -7.40625 4.734375 -6.96875 C 4.492188 -6.53125 4.375 -6.03125 4.375 -5.46875 C 4.375 -4.894531 4.5 -4.378906 4.75 -3.921875 C 5.007812 -3.472656 5.351562 -3.117188 5.78125 -2.859375 C 6.21875 -2.609375 6.6875 -2.484375 7.1875 -2.484375 Z M 7.1875 -2.484375 "/></g></g></g><g fill="#000000" fill-opacity="1"><g transform="translate(42.887319, 20.458657)"><g><path d="M 1.75 -19.15625 L 5.140625 -19.15625 L 5.140625 0 L 1.75 0 Z M 1.75 -19.15625 "/></g></g></g><g fill="#000000" fill-opacity="1"><g transform="translate(49.782857, 20.458657)"><g><path d="M 1.75 -10.609375 L 5.140625 -10.609375 L 5.140625 0 L 1.75 0 Z M 2.046875 -14.859375 C 2.046875 -15.359375 2.242188 -15.769531 2.640625 -16.09375 C 3.035156 -16.414062 3.457031 -16.578125 3.90625 -16.578125 C 4.363281 -16.578125 4.78125 -16.414062 5.15625 -16.09375 C 5.539062 -15.769531 5.734375 -15.359375 5.734375 -14.859375 C 5.734375 -14.359375 5.539062 -13.945312 5.15625 -13.625 C 4.78125 -13.3125 4.363281 -13.15625 3.90625 -13.15625 C 3.457031 -13.15625 3.035156 -13.3125 2.640625 -13.625 C 2.242188 -13.945312 2.046875 -14.359375 2.046875 -14.859375 Z M 2.046875 -14.859375 "/></g></g></g><g fill="#000000" fill-opacity="1"><g transform="translate(56.678395, 20.458657)"><g><path d="M 4.828125 -10.609375 L 5.09375 -8.71875 L 5.046875 -8.890625 C 5.421875 -9.546875 5.945312 -10.082031 6.625 -10.5 C 7.3125 -10.914062 8.144531 -11.125 9.125 -11.125 C 10.132812 -11.125 10.972656 -10.828125 11.640625 -10.234375 C 12.316406 -9.640625 12.660156 -8.875 12.671875 -7.9375 L 12.671875 0 L 9.28125 0 L 9.28125 -6.671875 C 9.257812 -7.140625 9.128906 -7.515625 8.890625 -7.796875 C 8.660156 -8.085938 8.269531 -8.234375 7.71875 -8.234375 C 7.195312 -8.234375 6.742188 -8.0625 6.359375 -7.71875 C 5.972656 -7.382812 5.671875 -6.925781 5.453125 -6.34375 C 5.242188 -5.757812 5.140625 -5.085938 5.140625 -4.328125 L 5.140625 0 L 1.75 0 L 1.75 -10.609375 Z M 4.828125 -10.609375 "/></g></g></g><g fill="#000000" fill-opacity="1"><g transform="translate(71.100758, 20.458657)"><g><path d="M 7.234375 5.34375 C 6.273438 5.34375 5.46875 5.226562 4.8125 5 C 4.164062 4.769531 3.613281 4.492188 3.15625 4.171875 C 2.707031 3.847656 2.300781 3.539062 1.9375 3.25 L 3.9375 0.921875 C 4.300781 1.265625 4.726562 1.59375 5.21875 1.90625 C 5.71875 2.21875 6.375 2.375 7.1875 2.375 C 7.71875 2.375 8.210938 2.28125 8.671875 2.09375 C 9.140625 1.914062 9.515625 1.644531 9.796875 1.28125 C 10.078125 0.925781 10.21875 0.484375 10.21875 -0.046875 L 10.21875 -2.375 L 10.34375 -1.765625 C 10.082031 -1.222656 9.613281 -0.742188 8.9375 -0.328125 C 8.257812 0.0859375 7.367188 0.296875 6.265625 0.296875 C 5.304688 0.296875 4.414062 0.0507812 3.59375 -0.4375 C 2.78125 -0.9375 2.128906 -1.609375 1.640625 -2.453125 C 1.160156 -3.304688 0.921875 -4.273438 0.921875 -5.359375 C 0.921875 -6.484375 1.179688 -7.476562 1.703125 -8.34375 C 2.222656 -9.207031 2.894531 -9.890625 3.71875 -10.390625 C 4.539062 -10.890625 5.414062 -11.140625 6.34375 -11.140625 C 7.257812 -11.140625 8.050781 -11.003906 8.71875 -10.734375 C 9.394531 -10.472656 9.90625 -10.148438 10.25 -9.765625 L 10.125 -9.453125 L 10.484375 -10.609375 L 13.625 -10.609375 L 13.625 0 C 13.625 1.03125 13.332031 1.945312 12.75 2.75 C 12.164062 3.550781 11.390625 4.179688 10.421875 4.640625 C 9.460938 5.109375 8.398438 5.34375 7.234375 5.34375 Z M 4.34375 -5.46875 C 4.34375 -4.894531 4.472656 -4.378906 4.734375 -3.921875 C 4.992188 -3.472656 5.34375 -3.117188 5.78125 -2.859375 C 6.226562 -2.609375 6.726562 -2.484375 7.28125 -2.484375 C 7.75 -2.484375 8.164062 -2.539062 8.53125 -2.65625 C 8.894531 -2.78125 9.21875 -2.957031 9.5 -3.1875 C 9.789062 -3.425781 10.03125 -3.722656 10.21875 -4.078125 L 10.21875 -6.671875 C 10.070312 -7.035156 9.851562 -7.34375 9.5625 -7.59375 C 9.269531 -7.84375 8.929688 -8.035156 8.546875 -8.171875 C 8.171875 -8.304688 7.75 -8.375 7.28125 -8.375 C 6.726562 -8.375 6.226562 -8.25 5.78125 -8 C 5.34375 -7.75 4.992188 -7.40625 4.734375 -6.96875 C 4.472656 -6.53125 4.34375 -6.03125 4.34375 -5.46875 Z M 4.34375 -5.46875 "/></g></g></g></g></g></g><g mask="url(#a211708142)"><g transform="matrix(1, 0, 0, 1, 71, 42)"><g clip-path="url(#e8f70e94a0)"><g fill="#000000" fill-opacity="1"><g transform="translate(0.139376, 19.814049)"><g><path d="M 1.75 0 L 1.75 -19.15625 L 5.078125 -19.15625 L 5.078125 -8.46875 L 5.046875 -8.890625 C 5.421875 -9.546875 5.945312 -10.082031 6.625 -10.5 C 7.3125 -10.914062 8.144531 -11.125 9.125 -11.125 C 10.132812 -11.125 10.972656 -10.828125 11.640625 -10.234375 C 12.316406 -9.640625 12.660156 -8.875 12.671875 -7.9375 L 12.671875 0 L 9.28125 0 L 9.28125 -6.671875 C 9.257812 -7.140625 9.128906 -7.515625 8.890625 -7.796875 C 8.660156 -8.085938 8.269531 -8.234375 7.71875 -8.234375 C 7.195312 -8.234375 6.742188 -8.0625 6.359375 -7.71875 C 5.972656 -7.382812 5.671875 -6.925781 5.453125 -6.34375 C 5.242188 -5.757812 5.140625 -5.085938 5.140625 -4.328125 L 5.140625 0 Z M 1.75 0 "/></g></g></g><g fill="#000000" fill-opacity="1"><g transform="translate(14.561739, 19.814049)"><g><path d="M 6.96875 0.296875 C 5.675781 0.296875 4.578125 0.0507812 3.671875 -0.4375 C 2.773438 -0.925781 2.09375 -1.597656 1.625 -2.453125 C 1.15625 -3.304688 0.921875 -4.296875 0.921875 -5.421875 C 0.921875 -6.484375 1.195312 -7.441406 1.75 -8.296875 C 2.300781 -9.160156 3.035156 -9.847656 3.953125 -10.359375 C 4.878906 -10.867188 5.910156 -11.125 7.046875 -11.125 C 8.566406 -11.125 9.816406 -10.679688 10.796875 -9.796875 C 11.773438 -8.910156 12.410156 -7.632812 12.703125 -5.96875 L 4.4375 -3.34375 L 3.6875 -5.203125 L 9.65625 -7.21875 L 8.953125 -6.890625 C 8.828125 -7.316406 8.597656 -7.6875 8.265625 -8 C 7.929688 -8.3125 7.4375 -8.46875 6.78125 -8.46875 C 6.269531 -8.46875 5.820312 -8.347656 5.4375 -8.109375 C 5.0625 -7.878906 4.773438 -7.550781 4.578125 -7.125 C 4.378906 -6.695312 4.28125 -6.191406 4.28125 -5.609375 C 4.28125 -4.941406 4.398438 -4.382812 4.640625 -3.9375 C 4.878906 -3.5 5.207031 -3.164062 5.625 -2.9375 C 6.050781 -2.707031 6.523438 -2.59375 7.046875 -2.59375 C 7.410156 -2.59375 7.765625 -2.65625 8.109375 -2.78125 C 8.460938 -2.914062 8.8125 -3.085938 9.15625 -3.296875 L 10.65625 -0.78125 C 10.09375 -0.457031 9.484375 -0.195312 8.828125 0 C 8.171875 0.195312 7.550781 0.296875 6.96875 0.296875 Z M 6.96875 0.296875 "/></g></g></g><g fill="#000000" fill-opacity="1"><g transform="translate(27.98862, 19.814049)"><g><path d="M 6.21875 0.296875 C 5.226562 0.296875 4.332031 0.0976562 3.53125 -0.296875 C 2.726562 -0.691406 2.09375 -1.300781 1.625 -2.125 C 1.15625 -2.957031 0.921875 -4.015625 0.921875 -5.296875 C 0.921875 -6.492188 1.160156 -7.53125 1.640625 -8.40625 C 2.128906 -9.28125 2.769531 -9.953125 3.5625 -10.421875 C 4.363281 -10.898438 5.207031 -11.140625 6.09375 -11.140625 C 7.144531 -11.140625 7.941406 -10.960938 8.484375 -10.609375 C 9.023438 -10.265625 9.472656 -9.882812 9.828125 -9.46875 L 9.6875 -9.0625 L 10 -10.609375 L 13.15625 -10.609375 L 13.15625 0 L 9.765625 0 L 9.765625 -2.3125 L 10.03125 -1.578125 C 10 -1.578125 9.898438 -1.484375 9.734375 -1.296875 C 9.578125 -1.109375 9.335938 -0.890625 9.015625 -0.640625 C 8.703125 -0.390625 8.3125 -0.171875 7.84375 0.015625 C 7.382812 0.203125 6.84375 0.296875 6.21875 0.296875 Z M 7.1875 -2.484375 C 7.59375 -2.484375 7.957031 -2.539062 8.28125 -2.65625 C 8.601562 -2.78125 8.882812 -2.957031 9.125 -3.1875 C 9.375 -3.425781 9.585938 -3.722656 9.765625 -4.078125 L 9.765625 -6.671875 C 9.628906 -7.035156 9.429688 -7.34375 9.171875 -7.59375 C 8.921875 -7.84375 8.613281 -8.035156 8.25 -8.171875 C 7.894531 -8.304688 7.5 -8.375 7.0625 -8.375 C 6.582031 -8.375 6.132812 -8.25 5.71875 -8 C 5.300781 -7.75 4.972656 -7.40625 4.734375 -6.96875 C 4.492188 -6.53125 4.375 -6.03125 4.375 -5.46875 C 4.375 -4.894531 4.5 -4.378906 4.75 -3.921875 C 5.007812 -3.472656 5.351562 -3.117188 5.78125 -2.859375 C 6.21875 -2.609375 6.6875 -2.484375 7.1875 -2.484375 Z M 7.1875 -2.484375 "/></g></g></g><g fill="#000000" fill-opacity="1"><g transform="translate(42.896591, 19.814049)"><g><path d="M 1.75 -19.15625 L 5.140625 -19.15625 L 5.140625 0 L 1.75 0 Z M 1.75 -19.15625 "/></g></g></g><g fill="#000000" fill-opacity="1"><g transform="translate(49.792129, 19.814049)"><g><path d="M 1.75 -10.609375 L 5.140625 -10.609375 L 5.140625 0 L 1.75 0 Z M 2.046875 -14.859375 C 2.046875 -15.359375 2.242188 -15.769531 2.640625 -16.09375 C 3.035156 -16.414062 3.457031 -16.578125 3.90625 -16.578125 C 4.363281 -16.578125 4.78125 -16.414062 5.15625 -16.09375 C 5.539062 -15.769531 5.734375 -15.359375 5.734375 -14.859375 C 5.734375 -14.359375 5.539062 -13.945312 5.15625 -13.625 C 4.78125 -13.3125 4.363281 -13.15625 3.90625 -13.15625 C 3.457031 -13.15625 3.035156 -13.3125 2.640625 -13.625 C 2.242188 -13.945312 2.046875 -14.359375 2.046875 -14.859375 Z M 2.046875 -14.859375 "/></g></g></g><g fill="#000000" fill-opacity="1"><g transform="translate(56.687667, 19.814049)"><g><path d="M 4.828125 -10.609375 L 5.09375 -8.71875 L 5.046875 -8.890625 C 5.421875 -9.546875 5.945312 -10.082031 6.625 -10.5 C 7.3125 -10.914062 8.144531 -11.125 9.125 -11.125 C 10.132812 -11.125 10.972656 -10.828125 11.640625 -10.234375 C 12.316406 -9.640625 12.660156 -8.875 12.671875 -7.9375 L 12.671875 0 L 9.28125 0 L 9.28125 -6.671875 C 9.257812 -7.140625 9.128906 -7.515625 8.890625 -7.796875 C 8.660156 -8.085938 8.269531 -8.234375 7.71875 -8.234375 C 7.195312 -8.234375 6.742188 -8.0625 6.359375 -7.71875 C 5.972656 -7.382812 5.671875 -6.925781 5.453125 -6.34375 C 5.242188 -5.757812 5.140625 -5.085938 5.140625 -4.328125 L 5.140625 0 L 1.75 0 L 1.75 -10.609375 Z M 4.828125 -10.609375 "/></g></g></g><g fill="#000000" fill-opacity="1"><g transform="translate(71.11003, 19.814049)"><g><path d="M 7.234375 5.34375 C 6.273438 5.34375 5.46875 5.226562 4.8125 5 C 4.164062 4.769531 3.613281 4.492188 3.15625 4.171875 C 2.707031 3.847656 2.300781 3.539062 1.9375 3.25 L 3.9375 0.921875 C 4.300781 1.265625 4.726562 1.59375 5.21875 1.90625 C 5.71875 2.21875 6.375 2.375 7.1875 2.375 C 7.71875 2.375 8.210938 2.28125 8.671875 2.09375 C 9.140625 1.914062 9.515625 1.644531 9.796875 1.28125 C 10.078125 0.925781 10.21875 0.484375 10.21875 -0.046875 L 10.21875 -2.375 L 10.34375 -1.765625 C 10.082031 -1.222656 9.613281 -0.742188 8.9375 -0.328125 C 8.257812 0.0859375 7.367188 0.296875 6.265625 0.296875 C 5.304688 0.296875 4.414062 0.0507812 3.59375 -0.4375 C 2.78125 -0.9375 2.128906 -1.609375 1.640625 -2.453125 C 1.160156 -3.304688 0.921875 -4.273438 0.921875 -5.359375 C 0.921875 -6.484375 1.179688 -7.476562 1.703125 -8.34375 C 2.222656 -9.207031 2.894531 -9.890625 3.71875 -10.390625 C 4.539062 -10.890625 5.414062 -11.140625 6.34375 -11.140625 C 7.257812 -11.140625 8.050781 -11.003906 8.71875 -10.734375 C 9.394531 -10.472656 9.90625 -10.148438 10.25 -9.765625 L 10.125 -9.453125 L 10.484375 -10.609375 L 13.625 -10.609375 L 13.625 0 C 13.625 1.03125 13.332031 1.945312 12.75 2.75 C 12.164062 3.550781 11.390625 4.179688 10.421875 4.640625 C 9.460938 5.109375 8.398438 5.34375 7.234375 5.34375 Z M 4.34375 -5.46875 C 4.34375 -4.894531 4.472656 -4.378906 4.734375 -3.921875 C 4.992188 -3.472656 5.34375 -3.117188 5.78125 -2.859375 C 6.226562 -2.609375 6.726562 -2.484375 7.28125 -2.484375 C 7.75 -2.484375 8.164062 -2.539062 8.53125 -2.65625 C 8.894531 -2.78125 9.21875 -2.957031 9.5 -3.1875 C 9.789062 -3.425781 10.03125 -3.722656 10.21875 -4.078125 L 10.21875 -6.671875 C 10.070312 -7.035156 9.851562 -7.34375 9.5625 -7.59375 C 9.269531 -7.84375 8.929688 -8.035156 8.546875 -8.171875 C 8.171875 -8.304688 7.75 -8.375 7.28125 -8.375 C 6.726562 -8.375 6.226562 -8.25 5.78125 -8 C 5.34375 -7.75 4.992188 -7.40625 4.734375 -6.96875 C 4.472656 -6.53125 4.34375 -6.03125 4.34375 -5.46875 Z M 4.34375 -5.46875 "/></g></g></g></g></g></g><g mask="url(#e6b7fae285)"><g transform="matrix(1, 0, 0, 1, 241, 42)"><g clip-path="url(#e7e8ee2bee)"><g clip-path="url(#81795d57ce)"><g fill="#000000" fill-opacity="1"><g transform="translate(0.258742, 20.043593)"><g><path d="M 1.75 0 L 1.75 -19.15625 L 5.078125 -19.15625 L 5.078125 -8.46875 L 5.046875 -8.890625 C 5.421875 -9.546875 5.945312 -10.082031 6.625 -10.5 C 7.3125 -10.914062 8.144531 -11.125 9.125 -11.125 C 10.132812 -11.125 10.972656 -10.828125 11.640625 -10.234375 C 12.316406 -9.640625 12.660156 -8.875 12.671875 -7.9375 L 12.671875 0 L 9.28125 0 L 9.28125 -6.671875 C 9.257812 -7.140625 9.128906 -7.515625 8.890625 -7.796875 C 8.660156 -8.085938 8.269531 -8.234375 7.71875 -8.234375 C 7.195312 -8.234375 6.742188 -8.0625 6.359375 -7.71875 C 5.972656 -7.382812 5.671875 -6.925781 5.453125 -6.34375 C 5.242188 -5.757812 5.140625 -5.085938 5.140625 -4.328125 L 5.140625 0 Z M 1.75 0 "/></g></g></g></g><g fill="#000000" fill-opacity="1"><g transform="translate(14.681105, 20.043593)"><g><path d="M 6.96875 0.296875 C 5.675781 0.296875 4.578125 0.0507812 3.671875 -0.4375 C 2.773438 -0.925781 2.09375 -1.597656 1.625 -2.453125 C 1.15625 -3.304688 0.921875 -4.296875 0.921875 -5.421875 C 0.921875 -6.484375 1.195312 -7.441406 1.75 -8.296875 C 2.300781 -9.160156 3.035156 -9.847656 3.953125 -10.359375 C 4.878906 -10.867188 5.910156 -11.125 7.046875 -11.125 C 8.566406 -11.125 9.816406 -10.679688 10.796875 -9.796875 C 11.773438 -8.910156 12.410156 -7.632812 12.703125 -5.96875 L 4.4375 -3.34375 L 3.6875 -5.203125 L 9.65625 -7.21875 L 8.953125 -6.890625 C 8.828125 -7.316406 8.597656 -7.6875 8.265625 -8 C 7.929688 -8.3125 7.4375 -8.46875 6.78125 -8.46875 C 6.269531 -8.46875 5.820312 -8.347656 5.4375 -8.109375 C 5.0625 -7.878906 4.773438 -7.550781 4.578125 -7.125 C 4.378906 -6.695312 4.28125 -6.191406 4.28125 -5.609375 C 4.28125 -4.941406 4.398438 -4.382812 4.640625 -3.9375 C 4.878906 -3.5 5.207031 -3.164062 5.625 -2.9375 C 6.050781 -2.707031 6.523438 -2.59375 7.046875 -2.59375 C 7.410156 -2.59375 7.765625 -2.65625 8.109375 -2.78125 C 8.460938 -2.914062 8.8125 -3.085938 9.15625 -3.296875 L 10.65625 -0.78125 C 10.09375 -0.457031 9.484375 -0.195312 8.828125 0 C 8.171875 0.195312 7.550781 0.296875 6.96875 0.296875 Z M 6.96875 0.296875 "/></g></g></g><g fill="#000000" fill-opacity="1"><g transform="translate(28.107986, 20.043593)"><g><path d="M 6.21875 0.296875 C 5.226562 0.296875 4.332031 0.0976562 3.53125 -0.296875 C 2.726562 -0.691406 2.09375 -1.300781 1.625 -2.125 C 1.15625 -2.957031 0.921875 -4.015625 0.921875 -5.296875 C 0.921875 -6.492188 1.160156 -7.53125 1.640625 -8.40625 C 2.128906 -9.28125 2.769531 -9.953125 3.5625 -10.421875 C 4.363281 -10.898438 5.207031 -11.140625 6.09375 -11.140625 C 7.144531 -11.140625 7.941406 -10.960938 8.484375 -10.609375 C 9.023438 -10.265625 9.472656 -9.882812 9.828125 -9.46875 L 9.6875 -9.0625 L 10 -10.609375 L 13.15625 -10.609375 L 13.15625 0 L 9.765625 0 L 9.765625 -2.3125 L 10.03125 -1.578125 C 10 -1.578125 9.898438 -1.484375 9.734375 -1.296875 C 9.578125 -1.109375 9.335938 -0.890625 9.015625 -0.640625 C 8.703125 -0.390625 8.3125 -0.171875 7.84375 0.015625 C 7.382812 0.203125 6.84375 0.296875 6.21875 0.296875 Z M 7.1875 -2.484375 C 7.59375 -2.484375 7.957031 -2.539062 8.28125 -2.65625 C 8.601562 -2.78125 8.882812 -2.957031 9.125 -3.1875 C 9.375 -3.425781 9.585938 -3.722656 9.765625 -4.078125 L 9.765625 -6.671875 C 9.628906 -7.035156 9.429688 -7.34375 9.171875 -7.59375 C 8.921875 -7.84375 8.613281 -8.035156 8.25 -8.171875 C 7.894531 -8.304688 7.5 -8.375 7.0625 -8.375 C 6.582031 -8.375 6.132812 -8.25 5.71875 -8 C 5.300781 -7.75 4.972656 -7.40625 4.734375 -6.96875 C 4.492188 -6.53125 4.375 -6.03125 4.375 -5.46875 C 4.375 -4.894531 4.5 -4.378906 4.75 -3.921875 C 5.007812 -3.472656 5.351562 -3.117188 5.78125 -2.859375 C 6.21875 -2.609375 6.6875 -2.484375 7.1875 -2.484375 Z M 7.1875 -2.484375 "/></g></g></g><g clip-path="url(#ee00c115d7)"><g fill="#000000" fill-opacity="1"><g transform="translate(43.015957, 20.043593)"><g><path d="M 1.75 -19.15625 L 5.140625 -19.15625 L 5.140625 0 L 1.75 0 Z M 1.75 -19.15625 "/></g></g></g></g><g fill="#000000" fill-opacity="1"><g transform="translate(49.911495, 20.043593)"><g><path d="M 1.75 -10.609375 L 5.140625 -10.609375 L 5.140625 0 L 1.75 0 Z M 2.046875 -14.859375 C 2.046875 -15.359375 2.242188 -15.769531 2.640625 -16.09375 C 3.035156 -16.414062 3.457031 -16.578125 3.90625 -16.578125 C 4.363281 -16.578125 4.78125 -16.414062 5.15625 -16.09375 C 5.539062 -15.769531 5.734375 -15.359375 5.734375 -14.859375 C 5.734375 -14.359375 5.539062 -13.945312 5.15625 -13.625 C 4.78125 -13.3125 4.363281 -13.15625 3.90625 -13.15625 C 3.457031 -13.15625 3.035156 -13.3125 2.640625 -13.625 C 2.242188 -13.945312 2.046875 -14.359375 2.046875 -14.859375 Z M 2.046875 -14.859375 "/></g></g></g><g fill="#000000" fill-opacity="1"><g transform="translate(56.807033, 20.043593)"><g><path d="M 4.828125 -10.609375 L 5.09375 -8.71875 L 5.046875 -8.890625 C 5.421875 -9.546875 5.945312 -10.082031 6.625 -10.5 C 7.3125 -10.914062 8.144531 -11.125 9.125 -11.125 C 10.132812 -11.125 10.972656 -10.828125 11.640625 -10.234375 C 12.316406 -9.640625 12.660156 -8.875 12.671875 -7.9375 L 12.671875 0 L 9.28125 0 L 9.28125 -6.671875 C 9.257812 -7.140625 9.128906 -7.515625 8.890625 -7.796875 C 8.660156 -8.085938 8.269531 -8.234375 7.71875 -8.234375 C 7.195312 -8.234375 6.742188 -8.0625 6.359375 -7.71875 C 5.972656 -7.382812 5.671875 -6.925781 5.453125 -6.34375 C 5.242188 -5.757812 5.140625 -5.085938 5.140625 -4.328125 L 5.140625 0 L 1.75 0 L 1.75 -10.609375 Z M 4.828125 -10.609375 "/></g></g></g><g fill="#000000" fill-opacity="1"><g transform="translate(71.229396, 20.043593)"><g><path d="M 7.234375 5.34375 C 6.273438 5.34375 5.46875 5.226562 4.8125 5 C 4.164062 4.769531 3.613281 4.492188 3.15625 4.171875 C 2.707031 3.847656 2.300781 3.539062 1.9375 3.25 L 3.9375 0.921875 C 4.300781 1.265625 4.726562 1.59375 5.21875 1.90625 C 5.71875 2.21875 6.375 2.375 7.1875 2.375 C 7.71875 2.375 8.210938 2.28125 8.671875 2.09375 C 9.140625 1.914062 9.515625 1.644531 9.796875 1.28125 C 10.078125 0.925781 10.21875 0.484375 10.21875 -0.046875 L 10.21875 -2.375 L 10.34375 -1.765625 C 10.082031 -1.222656 9.613281 -0.742188 8.9375 -0.328125 C 8.257812 0.0859375 7.367188 0.296875 6.265625 0.296875 C 5.304688 0.296875 4.414062 0.0507812 3.59375 -0.4375 C 2.78125 -0.9375 2.128906 -1.609375 1.640625 -2.453125 C 1.160156 -3.304688 0.921875 -4.273438 0.921875 -5.359375 C 0.921875 -6.484375 1.179688 -7.476562 1.703125 -8.34375 C 2.222656 -9.207031 2.894531 -9.890625 3.71875 -10.390625 C 4.539062 -10.890625 5.414062 -11.140625 6.34375 -11.140625 C 7.257812 -11.140625 8.050781 -11.003906 8.71875 -10.734375 C 9.394531 -10.472656 9.90625 -10.148438 10.25 -9.765625 L 10.125 -9.453125 L 10.484375 -10.609375 L 13.625 -10.609375 L 13.625 0 C 13.625 1.03125 13.332031 1.945312 12.75 2.75 C 12.164062 3.550781 11.390625 4.179688 10.421875 4.640625 C 9.460938 5.109375 8.398438 5.34375 7.234375 5.34375 Z M 4.34375 -5.46875 C 4.34375 -4.894531 4.472656 -4.378906 4.734375 -3.921875 C 4.992188 -3.472656 5.34375 -3.117188 5.78125 -2.859375 C 6.226562 -2.609375 6.726562 -2.484375 7.28125 -2.484375 C 7.75 -2.484375 8.164062 -2.539062 8.53125 -2.65625 C 8.894531 -2.78125 9.21875 -2.957031 9.5 -3.1875 C 9.789062 -3.425781 10.03125 -3.722656 10.21875 -4.078125 L 10.21875 -6.671875 C 10.070312 -7.035156 9.851562 -7.34375 9.5625 -7.59375 C 9.269531 -7.84375 8.929688 -8.035156 8.546875 -8.171875 C 8.171875 -8.304688 7.75 -8.375 7.28125 -8.375 C 6.726562 -8.375 6.226562 -8.25 5.78125 -8 C 5.34375 -7.75 4.992188 -7.40625 4.734375 -6.96875 C 4.472656 -6.53125 4.34375 -6.03125 4.34375 -5.46875 Z M 4.34375 -5.46875 "/></g></g></g></g></g></g></svg>