<svg xmlns="http://www.w3.org/2000/svg" xmlns:xlink="http://www.w3.org/1999/xlink" width="228" zoomAndPan="magnify" viewBox="0 0 171 37.5" height="50" preserveAspectRatio="xMidYMid meet" version="1.0"><defs><filter x="0%" y="0%" width="100%" height="100%" id="c0711eecc9"><feColorMatrix values="0 0 0 0 1 0 0 0 0 1 0 0 0 0 1 0 0 0 1 0" color-interpolation-filters="sRGB"/></filter><g/><clipPath id="77a172e379"><path d="M 1.125 0 L 169.875 0 L 169.875 37.007812 L 1.125 37.007812 Z M 1.125 0 " clip-rule="nonzero"/></clipPath><mask id="27d2e9f3a8"><g filter="url(#c0711eecc9)"><rect x="-17.1" width="205.2" fill="#000000" y="-3.75" height="45" fill-opacity="0.2471"/></g></mask><clipPath id="1f5a448962"><path d="M 1 0.367188 L 7 0.367188 L 7 11 L 1 11 Z M 1 0.367188 " clip-rule="nonzero"/></clipPath><clipPath id="9b465597f8"><path d="M 22 0.367188 L 25 0.367188 L 25 11 L 22 11 Z M 22 0.367188 " clip-rule="nonzero"/></clipPath><clipPath id="ca0e88f499"><rect x="0" width="44" y="0" height="14"/></clipPath><mask id="69d406b84e"><g filter="url(#c0711eecc9)"><rect x="-17.1" width="205.2" fill="#000000" y="-3.75" height="45" fill-opacity="0.2471"/></g></mask><clipPath id="6e36ac1359"><path d="M 1 0.367188 L 8 0.367188 L 8 11 L 1 11 Z M 1 0.367188 " clip-rule="nonzero"/></clipPath><clipPath id="e10e85017b"><path d="M 22 0.367188 L 25 0.367188 L 25 11 L 22 11 Z M 22 0.367188 " clip-rule="nonzero"/></clipPath><clipPath id="ebc3156fe0"><rect x="0" width="44" y="0" height="14"/></clipPath><mask id="94966a29e5"><g filter="url(#c0711eecc9)"><rect x="-17.1" width="205.2" fill="#000000" y="-3.75" height="45" fill-opacity="0.2471"/></g></mask><clipPath id="856f1b082d"><path d="M 35 5 L 42 5 L 42 13.867188 L 35 13.867188 Z M 35 5 " clip-rule="nonzero"/></clipPath><clipPath id="1474b7166c"><rect x="0" width="44" y="0" height="14"/></clipPath><mask id="43e7f035c7"><g filter="url(#c0711eecc9)"><rect x="-17.1" width="205.2" fill="#000000" y="-3.75" height="45" fill-opacity="0.2471"/></g></mask><clipPath id="ff45881d67"><path d="M 35 5 L 42 5 L 42 13.867188 L 35 13.867188 Z M 35 5 " clip-rule="nonzero"/></clipPath><clipPath id="d915cd8bcc"><rect x="0" width="44" y="0" height="14"/></clipPath></defs><g clip-path="url(#77a172e379)"><path fill="#ffffff" d="M 1.125 0 L 169.875 0 L 169.875 44.40625 L 1.125 44.40625 Z M 1.125 0 " fill-opacity="1" fill-rule="nonzero"/><path fill="#ffffff" d="M 1.125 0 L 169.875 0 L 169.875 37.007812 L 1.125 37.007812 Z M 1.125 0 " fill-opacity="1" fill-rule="nonzero"/><path fill="#865124" d="M 1.125 0 L 169.875 0 L 169.875 37.007812 L 1.125 37.007812 Z M 1.125 0 " fill-opacity="1" fill-rule="nonzero"/></g><g mask="url(#27d2e9f3a8)"><g transform="matrix(1, 0, 0, 1, 7, 2)"><g clip-path="url(#ca0e88f499)"><g clip-path="url(#1f5a448962)"><g fill="#000000" fill-opacity="1"><g transform="translate(0.413245, 10.068418)"><g><path d="M 0.859375 0 L 0.859375 -9.453125 L 2.5 -9.453125 L 2.5 -4.1875 L 2.5 -4.390625 C 2.675781 -4.710938 2.929688 -4.972656 3.265625 -5.171875 C 3.609375 -5.378906 4.019531 -5.484375 4.5 -5.484375 C 5 -5.484375 5.414062 -5.335938 5.75 -5.046875 C 6.082031 -4.753906 6.25 -4.378906 6.25 -3.921875 L 6.25 0 L 4.578125 0 L 4.578125 -3.296875 C 4.566406 -3.523438 4.503906 -3.707031 4.390625 -3.84375 C 4.273438 -3.988281 4.082031 -4.0625 3.8125 -4.0625 C 3.550781 -4.0625 3.328125 -3.976562 3.140625 -3.8125 C 2.953125 -3.644531 2.804688 -3.414062 2.703125 -3.125 C 2.597656 -2.84375 2.546875 -2.515625 2.546875 -2.140625 L 2.546875 0 Z M 0.859375 0 "/></g></g></g></g><g fill="#000000" fill-opacity="1"><g transform="translate(7.529543, 10.068418)"><g><path d="M 3.4375 0.140625 C 2.800781 0.140625 2.257812 0.0195312 1.8125 -0.21875 C 1.375 -0.457031 1.035156 -0.785156 0.796875 -1.203125 C 0.566406 -1.628906 0.453125 -2.117188 0.453125 -2.671875 C 0.453125 -3.203125 0.585938 -3.675781 0.859375 -4.09375 C 1.128906 -4.519531 1.492188 -4.859375 1.953125 -5.109375 C 2.410156 -5.359375 2.914062 -5.484375 3.46875 -5.484375 C 4.226562 -5.484375 4.847656 -5.265625 5.328125 -4.828125 C 5.804688 -4.398438 6.117188 -3.773438 6.265625 -2.953125 L 2.1875 -1.65625 L 1.828125 -2.5625 L 4.765625 -3.5625 L 4.421875 -3.40625 C 4.359375 -3.613281 4.242188 -3.796875 4.078125 -3.953125 C 3.910156 -4.109375 3.664062 -4.1875 3.34375 -4.1875 C 3.09375 -4.1875 2.875 -4.125 2.6875 -4 C 2.5 -3.882812 2.351562 -3.722656 2.25 -3.515625 C 2.15625 -3.304688 2.109375 -3.054688 2.109375 -2.765625 C 2.109375 -2.441406 2.164062 -2.171875 2.28125 -1.953125 C 2.40625 -1.734375 2.570312 -1.566406 2.78125 -1.453125 C 2.988281 -1.335938 3.21875 -1.28125 3.46875 -1.28125 C 3.65625 -1.28125 3.832031 -1.3125 4 -1.375 C 4.175781 -1.4375 4.347656 -1.519531 4.515625 -1.625 L 5.265625 -0.390625 C 4.984375 -0.222656 4.679688 -0.09375 4.359375 0 C 4.035156 0.09375 3.726562 0.140625 3.4375 0.140625 Z M 3.4375 0.140625 "/></g></g></g><g fill="#000000" fill-opacity="1"><g transform="translate(14.154649, 10.068418)"><g><path d="M 3.0625 0.140625 C 2.582031 0.140625 2.144531 0.046875 1.75 -0.140625 C 1.351562 -0.335938 1.035156 -0.640625 0.796875 -1.046875 C 0.566406 -1.460938 0.453125 -1.984375 0.453125 -2.609375 C 0.453125 -3.203125 0.570312 -3.710938 0.8125 -4.140625 C 1.050781 -4.578125 1.363281 -4.910156 1.75 -5.140625 C 2.144531 -5.378906 2.566406 -5.5 3.015625 -5.5 C 3.523438 -5.5 3.914062 -5.410156 4.1875 -5.234375 C 4.457031 -5.066406 4.679688 -4.878906 4.859375 -4.671875 L 4.78125 -4.46875 L 4.9375 -5.234375 L 6.5 -5.234375 L 6.5 0 L 4.8125 0 L 4.8125 -1.140625 L 4.953125 -0.78125 C 4.929688 -0.78125 4.878906 -0.734375 4.796875 -0.640625 C 4.722656 -0.546875 4.609375 -0.4375 4.453125 -0.3125 C 4.296875 -0.1875 4.101562 -0.0820312 3.875 0 C 3.644531 0.09375 3.375 0.140625 3.0625 0.140625 Z M 3.546875 -1.21875 C 3.742188 -1.21875 3.921875 -1.25 4.078125 -1.3125 C 4.242188 -1.375 4.382812 -1.460938 4.5 -1.578125 C 4.625 -1.691406 4.726562 -1.835938 4.8125 -2.015625 L 4.8125 -3.296875 C 4.75 -3.472656 4.65625 -3.625 4.53125 -3.75 C 4.40625 -3.875 4.253906 -3.96875 4.078125 -4.03125 C 3.898438 -4.101562 3.703125 -4.140625 3.484375 -4.140625 C 3.242188 -4.140625 3.019531 -4.078125 2.8125 -3.953125 C 2.613281 -3.828125 2.453125 -3.65625 2.328125 -3.4375 C 2.210938 -3.21875 2.15625 -2.972656 2.15625 -2.703125 C 2.15625 -2.421875 2.21875 -2.164062 2.34375 -1.9375 C 2.476562 -1.71875 2.648438 -1.539062 2.859375 -1.40625 C 3.066406 -1.28125 3.296875 -1.21875 3.546875 -1.21875 Z M 3.546875 -1.21875 "/></g></g></g><g clip-path="url(#9b465597f8)"><g fill="#000000" fill-opacity="1"><g transform="translate(21.510556, 10.068418)"><g><path d="M 0.859375 -9.453125 L 2.546875 -9.453125 L 2.546875 0 L 0.859375 0 Z M 0.859375 -9.453125 "/></g></g></g></g><g fill="#000000" fill-opacity="1"><g transform="translate(24.912959, 10.068418)"><g><path d="M 0.859375 -5.234375 L 2.546875 -5.234375 L 2.546875 0 L 0.859375 0 Z M 0.515625 -7.328125 C 0.515625 -7.578125 0.613281 -7.78125 0.8125 -7.9375 C 1.007812 -8.101562 1.21875 -8.1875 1.4375 -8.1875 C 1.664062 -8.1875 1.875 -8.101562 2.0625 -7.9375 C 2.25 -7.78125 2.34375 -7.578125 2.34375 -7.328125 C 2.34375 -7.085938 2.25 -6.890625 2.0625 -6.734375 C 1.875 -6.578125 1.664062 -6.5 1.4375 -6.5 C 1.21875 -6.5 1.007812 -6.578125 0.8125 -6.734375 C 0.613281 -6.890625 0.515625 -7.085938 0.515625 -7.328125 Z M 0.515625 -7.328125 "/></g></g></g><g fill="#000000" fill-opacity="1"><g transform="translate(28.315363, 10.068418)"><g><path d="M 2.390625 -5.234375 L 2.515625 -4.296875 L 2.5 -4.390625 C 2.675781 -4.710938 2.929688 -4.972656 3.265625 -5.171875 C 3.609375 -5.378906 4.019531 -5.484375 4.5 -5.484375 C 5 -5.484375 5.414062 -5.335938 5.75 -5.046875 C 6.082031 -4.753906 6.25 -4.378906 6.25 -3.921875 L 6.25 0 L 4.578125 0 L 4.578125 -3.296875 C 4.566406 -3.523438 4.503906 -3.707031 4.390625 -3.84375 C 4.273438 -3.988281 4.082031 -4.0625 3.8125 -4.0625 C 3.550781 -4.0625 3.328125 -3.976562 3.140625 -3.8125 C 2.953125 -3.644531 2.804688 -3.414062 2.703125 -3.125 C 2.597656 -2.84375 2.546875 -2.515625 2.546875 -2.140625 L 2.546875 0 L 0.859375 0 L 0.859375 -5.234375 Z M 2.390625 -5.234375 "/></g></g></g><g fill="#000000" fill-opacity="1"><g transform="translate(35.431661, 10.068418)"><g><path d="M 3.578125 2.640625 C 3.097656 2.640625 2.695312 2.582031 2.375 2.46875 C 2.050781 2.351562 1.773438 2.21875 1.546875 2.0625 C 1.328125 1.90625 1.128906 1.753906 0.953125 1.609375 L 1.9375 0.453125 C 2.125 0.617188 2.335938 0.78125 2.578125 0.9375 C 2.828125 1.09375 3.148438 1.171875 3.546875 1.171875 C 3.804688 1.171875 4.050781 1.125 4.28125 1.03125 C 4.507812 0.945312 4.691406 0.816406 4.828125 0.640625 C 4.972656 0.460938 5.046875 0.238281 5.046875 -0.03125 L 5.046875 -1.171875 L 5.109375 -0.875 C 4.972656 -0.601562 4.738281 -0.363281 4.40625 -0.15625 C 4.070312 0.0390625 3.632812 0.140625 3.09375 0.140625 C 2.625 0.140625 2.1875 0.0195312 1.78125 -0.21875 C 1.375 -0.46875 1.050781 -0.800781 0.8125 -1.21875 C 0.570312 -1.632812 0.453125 -2.113281 0.453125 -2.65625 C 0.453125 -3.195312 0.578125 -3.679688 0.828125 -4.109375 C 1.085938 -4.535156 1.421875 -4.875 1.828125 -5.125 C 2.234375 -5.375 2.664062 -5.5 3.125 -5.5 C 3.582031 -5.5 3.976562 -5.429688 4.3125 -5.296875 C 4.644531 -5.171875 4.894531 -5.007812 5.0625 -4.8125 L 5 -4.65625 L 5.171875 -5.234375 L 6.71875 -5.234375 L 6.71875 0 C 6.71875 0.507812 6.570312 0.960938 6.28125 1.359375 C 6 1.753906 5.617188 2.066406 5.140625 2.296875 C 4.671875 2.523438 4.148438 2.640625 3.578125 2.640625 Z M 2.140625 -2.703125 C 2.140625 -2.421875 2.203125 -2.164062 2.328125 -1.9375 C 2.460938 -1.71875 2.640625 -1.539062 2.859375 -1.40625 C 3.078125 -1.28125 3.320312 -1.21875 3.59375 -1.21875 C 3.820312 -1.21875 4.023438 -1.25 4.203125 -1.3125 C 4.390625 -1.375 4.550781 -1.460938 4.6875 -1.578125 C 4.832031 -1.691406 4.953125 -1.835938 5.046875 -2.015625 L 5.046875 -3.296875 C 4.972656 -3.472656 4.863281 -3.625 4.71875 -3.75 C 4.570312 -3.875 4.40625 -3.96875 4.21875 -4.03125 C 4.03125 -4.101562 3.820312 -4.140625 3.59375 -4.140625 C 3.320312 -4.140625 3.078125 -4.078125 2.859375 -3.953125 C 2.640625 -3.828125 2.460938 -3.65625 2.328125 -3.4375 C 2.203125 -3.21875 2.140625 -2.972656 2.140625 -2.703125 Z M 2.140625 -2.703125 "/></g></g></g></g></g></g><g mask="url(#69d406b84e)"><g transform="matrix(1, 0, 0, 1, 91, 2)"><g clip-path="url(#ebc3156fe0)"><g clip-path="url(#6e36ac1359)"><g fill="#000000" fill-opacity="1"><g transform="translate(0.97867, 10.068418)"><g><path d="M 0.859375 0 L 0.859375 -9.453125 L 2.5 -9.453125 L 2.5 -4.1875 L 2.5 -4.390625 C 2.675781 -4.710938 2.929688 -4.972656 3.265625 -5.171875 C 3.609375 -5.378906 4.019531 -5.484375 4.5 -5.484375 C 5 -5.484375 5.414062 -5.335938 5.75 -5.046875 C 6.082031 -4.753906 6.25 -4.378906 6.25 -3.921875 L 6.25 0 L 4.578125 0 L 4.578125 -3.296875 C 4.566406 -3.523438 4.503906 -3.707031 4.390625 -3.84375 C 4.273438 -3.988281 4.082031 -4.0625 3.8125 -4.0625 C 3.550781 -4.0625 3.328125 -3.976562 3.140625 -3.8125 C 2.953125 -3.644531 2.804688 -3.414062 2.703125 -3.125 C 2.597656 -2.84375 2.546875 -2.515625 2.546875 -2.140625 L 2.546875 0 Z M 0.859375 0 "/></g></g></g></g><g fill="#000000" fill-opacity="1"><g transform="translate(8.094968, 10.068418)"><g><path d="M 3.4375 0.140625 C 2.800781 0.140625 2.257812 0.0195312 1.8125 -0.21875 C 1.375 -0.457031 1.035156 -0.785156 0.796875 -1.203125 C 0.566406 -1.628906 0.453125 -2.117188 0.453125 -2.671875 C 0.453125 -3.203125 0.585938 -3.675781 0.859375 -4.09375 C 1.128906 -4.519531 1.492188 -4.859375 1.953125 -5.109375 C 2.410156 -5.359375 2.914062 -5.484375 3.46875 -5.484375 C 4.226562 -5.484375 4.847656 -5.265625 5.328125 -4.828125 C 5.804688 -4.398438 6.117188 -3.773438 6.265625 -2.953125 L 2.1875 -1.65625 L 1.828125 -2.5625 L 4.765625 -3.5625 L 4.421875 -3.40625 C 4.359375 -3.613281 4.242188 -3.796875 4.078125 -3.953125 C 3.910156 -4.109375 3.664062 -4.1875 3.34375 -4.1875 C 3.09375 -4.1875 2.875 -4.125 2.6875 -4 C 2.5 -3.882812 2.351562 -3.722656 2.25 -3.515625 C 2.15625 -3.304688 2.109375 -3.054688 2.109375 -2.765625 C 2.109375 -2.441406 2.164062 -2.171875 2.28125 -1.953125 C 2.40625 -1.734375 2.570312 -1.566406 2.78125 -1.453125 C 2.988281 -1.335938 3.21875 -1.28125 3.46875 -1.28125 C 3.65625 -1.28125 3.832031 -1.3125 4 -1.375 C 4.175781 -1.4375 4.347656 -1.519531 4.515625 -1.625 L 5.265625 -0.390625 C 4.984375 -0.222656 4.679688 -0.09375 4.359375 0 C 4.035156 0.09375 3.726562 0.140625 3.4375 0.140625 Z M 3.4375 0.140625 "/></g></g></g><g fill="#000000" fill-opacity="1"><g transform="translate(14.720074, 10.068418)"><g><path d="M 3.0625 0.140625 C 2.582031 0.140625 2.144531 0.046875 1.75 -0.140625 C 1.351562 -0.335938 1.035156 -0.640625 0.796875 -1.046875 C 0.566406 -1.460938 0.453125 -1.984375 0.453125 -2.609375 C 0.453125 -3.203125 0.570312 -3.710938 0.8125 -4.140625 C 1.050781 -4.578125 1.363281 -4.910156 1.75 -5.140625 C 2.144531 -5.378906 2.566406 -5.5 3.015625 -5.5 C 3.523438 -5.5 3.914062 -5.410156 4.1875 -5.234375 C 4.457031 -5.066406 4.679688 -4.878906 4.859375 -4.671875 L 4.78125 -4.46875 L 4.9375 -5.234375 L 6.5 -5.234375 L 6.5 0 L 4.8125 0 L 4.8125 -1.140625 L 4.953125 -0.78125 C 4.929688 -0.78125 4.878906 -0.734375 4.796875 -0.640625 C 4.722656 -0.546875 4.609375 -0.4375 4.453125 -0.3125 C 4.296875 -0.1875 4.101562 -0.0820312 3.875 0 C 3.644531 0.09375 3.375 0.140625 3.0625 0.140625 Z M 3.546875 -1.21875 C 3.742188 -1.21875 3.921875 -1.25 4.078125 -1.3125 C 4.242188 -1.375 4.382812 -1.460938 4.5 -1.578125 C 4.625 -1.691406 4.726562 -1.835938 4.8125 -2.015625 L 4.8125 -3.296875 C 4.75 -3.472656 4.65625 -3.625 4.53125 -3.75 C 4.40625 -3.875 4.253906 -3.96875 4.078125 -4.03125 C 3.898438 -4.101562 3.703125 -4.140625 3.484375 -4.140625 C 3.242188 -4.140625 3.019531 -4.078125 2.8125 -3.953125 C 2.613281 -3.828125 2.453125 -3.65625 2.328125 -3.4375 C 2.210938 -3.21875 2.15625 -2.972656 2.15625 -2.703125 C 2.15625 -2.421875 2.21875 -2.164062 2.34375 -1.9375 C 2.476562 -1.71875 2.648438 -1.539062 2.859375 -1.40625 C 3.066406 -1.28125 3.296875 -1.21875 3.546875 -1.21875 Z M 3.546875 -1.21875 "/></g></g></g><g clip-path="url(#e10e85017b)"><g fill="#000000" fill-opacity="1"><g transform="translate(22.075981, 10.068418)"><g><path d="M 0.859375 -9.453125 L 2.546875 -9.453125 L 2.546875 0 L 0.859375 0 Z M 0.859375 -9.453125 "/></g></g></g></g><g fill="#000000" fill-opacity="1"><g transform="translate(25.478385, 10.068418)"><g><path d="M 0.859375 -5.234375 L 2.546875 -5.234375 L 2.546875 0 L 0.859375 0 Z M 0.515625 -7.328125 C 0.515625 -7.578125 0.613281 -7.78125 0.8125 -7.9375 C 1.007812 -8.101562 1.21875 -8.1875 1.4375 -8.1875 C 1.664062 -8.1875 1.875 -8.101562 2.0625 -7.9375 C 2.25 -7.78125 2.34375 -7.578125 2.34375 -7.328125 C 2.34375 -7.085938 2.25 -6.890625 2.0625 -6.734375 C 1.875 -6.578125 1.664062 -6.5 1.4375 -6.5 C 1.21875 -6.5 1.007812 -6.578125 0.8125 -6.734375 C 0.613281 -6.890625 0.515625 -7.085938 0.515625 -7.328125 Z M 0.515625 -7.328125 "/></g></g></g><g fill="#000000" fill-opacity="1"><g transform="translate(28.880788, 10.068418)"><g><path d="M 2.390625 -5.234375 L 2.515625 -4.296875 L 2.5 -4.390625 C 2.675781 -4.710938 2.929688 -4.972656 3.265625 -5.171875 C 3.609375 -5.378906 4.019531 -5.484375 4.5 -5.484375 C 5 -5.484375 5.414062 -5.335938 5.75 -5.046875 C 6.082031 -4.753906 6.25 -4.378906 6.25 -3.921875 L 6.25 0 L 4.578125 0 L 4.578125 -3.296875 C 4.566406 -3.523438 4.503906 -3.707031 4.390625 -3.84375 C 4.273438 -3.988281 4.082031 -4.0625 3.8125 -4.0625 C 3.550781 -4.0625 3.328125 -3.976562 3.140625 -3.8125 C 2.953125 -3.644531 2.804688 -3.414062 2.703125 -3.125 C 2.597656 -2.84375 2.546875 -2.515625 2.546875 -2.140625 L 2.546875 0 L 0.859375 0 L 0.859375 -5.234375 Z M 2.390625 -5.234375 "/></g></g></g><g fill="#000000" fill-opacity="1"><g transform="translate(35.997086, 10.068418)"><g><path d="M 3.578125 2.640625 C 3.097656 2.640625 2.695312 2.582031 2.375 2.46875 C 2.050781 2.351562 1.773438 2.21875 1.546875 2.0625 C 1.328125 1.90625 1.128906 1.753906 0.953125 1.609375 L 1.9375 0.453125 C 2.125 0.617188 2.335938 0.78125 2.578125 0.9375 C 2.828125 1.09375 3.148438 1.171875 3.546875 1.171875 C 3.804688 1.171875 4.050781 1.125 4.28125 1.03125 C 4.507812 0.945312 4.691406 0.816406 4.828125 0.640625 C 4.972656 0.460938 5.046875 0.238281 5.046875 -0.03125 L 5.046875 -1.171875 L 5.109375 -0.875 C 4.972656 -0.601562 4.738281 -0.363281 4.40625 -0.15625 C 4.070312 0.0390625 3.632812 0.140625 3.09375 0.140625 C 2.625 0.140625 2.1875 0.0195312 1.78125 -0.21875 C 1.375 -0.46875 1.050781 -0.800781 0.8125 -1.21875 C 0.570312 -1.632812 0.453125 -2.113281 0.453125 -2.65625 C 0.453125 -3.195312 0.578125 -3.679688 0.828125 -4.109375 C 1.085938 -4.535156 1.421875 -4.875 1.828125 -5.125 C 2.234375 -5.375 2.664062 -5.5 3.125 -5.5 C 3.582031 -5.5 3.976562 -5.429688 4.3125 -5.296875 C 4.644531 -5.171875 4.894531 -5.007812 5.0625 -4.8125 L 5 -4.65625 L 5.171875 -5.234375 L 6.71875 -5.234375 L 6.71875 0 C 6.71875 0.507812 6.570312 0.960938 6.28125 1.359375 C 6 1.753906 5.617188 2.066406 5.140625 2.296875 C 4.671875 2.523438 4.148438 2.640625 3.578125 2.640625 Z M 2.140625 -2.703125 C 2.140625 -2.421875 2.203125 -2.164062 2.328125 -1.9375 C 2.460938 -1.71875 2.640625 -1.539062 2.859375 -1.40625 C 3.078125 -1.28125 3.320312 -1.21875 3.59375 -1.21875 C 3.820312 -1.21875 4.023438 -1.25 4.203125 -1.3125 C 4.390625 -1.375 4.550781 -1.460938 4.6875 -1.578125 C 4.832031 -1.691406 4.953125 -1.835938 5.046875 -2.015625 L 5.046875 -3.296875 C 4.972656 -3.472656 4.863281 -3.625 4.71875 -3.75 C 4.570312 -3.875 4.40625 -3.96875 4.21875 -4.03125 C 4.03125 -4.101562 3.820312 -4.140625 3.59375 -4.140625 C 3.320312 -4.140625 3.078125 -4.078125 2.859375 -3.953125 C 2.640625 -3.828125 2.460938 -3.65625 2.328125 -3.4375 C 2.203125 -3.21875 2.140625 -2.972656 2.140625 -2.703125 Z M 2.140625 -2.703125 "/></g></g></g></g></g></g><g mask="url(#94966a29e5)"><g transform="matrix(1, 0, 0, 1, 36, 20)"><g clip-path="url(#1474b7166c)"><g fill="#000000" fill-opacity="1"><g transform="translate(0.226664, 10.500356)"><g><path d="M 0.859375 0 L 0.859375 -9.453125 L 2.5 -9.453125 L 2.5 -4.1875 L 2.5 -4.390625 C 2.675781 -4.710938 2.929688 -4.972656 3.265625 -5.171875 C 3.609375 -5.378906 4.019531 -5.484375 4.5 -5.484375 C 5 -5.484375 5.414062 -5.335938 5.75 -5.046875 C 6.082031 -4.753906 6.25 -4.378906 6.25 -3.921875 L 6.25 0 L 4.578125 0 L 4.578125 -3.296875 C 4.566406 -3.523438 4.503906 -3.707031 4.390625 -3.84375 C 4.273438 -3.988281 4.082031 -4.0625 3.8125 -4.0625 C 3.550781 -4.0625 3.328125 -3.976562 3.140625 -3.8125 C 2.953125 -3.644531 2.804688 -3.414062 2.703125 -3.125 C 2.597656 -2.84375 2.546875 -2.515625 2.546875 -2.140625 L 2.546875 0 Z M 0.859375 0 "/></g></g></g><g fill="#000000" fill-opacity="1"><g transform="translate(7.342962, 10.500356)"><g><path d="M 3.4375 0.140625 C 2.800781 0.140625 2.257812 0.0195312 1.8125 -0.21875 C 1.375 -0.457031 1.035156 -0.785156 0.796875 -1.203125 C 0.566406 -1.628906 0.453125 -2.117188 0.453125 -2.671875 C 0.453125 -3.203125 0.585938 -3.675781 0.859375 -4.09375 C 1.128906 -4.519531 1.492188 -4.859375 1.953125 -5.109375 C 2.410156 -5.359375 2.914062 -5.484375 3.46875 -5.484375 C 4.226562 -5.484375 4.847656 -5.265625 5.328125 -4.828125 C 5.804688 -4.398438 6.117188 -3.773438 6.265625 -2.953125 L 2.1875 -1.65625 L 1.828125 -2.5625 L 4.765625 -3.5625 L 4.421875 -3.40625 C 4.359375 -3.613281 4.242188 -3.796875 4.078125 -3.953125 C 3.910156 -4.109375 3.664062 -4.1875 3.34375 -4.1875 C 3.09375 -4.1875 2.875 -4.125 2.6875 -4 C 2.5 -3.882812 2.351562 -3.722656 2.25 -3.515625 C 2.15625 -3.304688 2.109375 -3.054688 2.109375 -2.765625 C 2.109375 -2.441406 2.164062 -2.171875 2.28125 -1.953125 C 2.40625 -1.734375 2.570312 -1.566406 2.78125 -1.453125 C 2.988281 -1.335938 3.21875 -1.28125 3.46875 -1.28125 C 3.65625 -1.28125 3.832031 -1.3125 4 -1.375 C 4.175781 -1.4375 4.347656 -1.519531 4.515625 -1.625 L 5.265625 -0.390625 C 4.984375 -0.222656 4.679688 -0.09375 4.359375 0 C 4.035156 0.09375 3.726562 0.140625 3.4375 0.140625 Z M 3.4375 0.140625 "/></g></g></g><g fill="#000000" fill-opacity="1"><g transform="translate(13.968068, 10.500356)"><g><path d="M 3.0625 0.140625 C 2.582031 0.140625 2.144531 0.046875 1.75 -0.140625 C 1.351562 -0.335938 1.035156 -0.640625 0.796875 -1.046875 C 0.566406 -1.460938 0.453125 -1.984375 0.453125 -2.609375 C 0.453125 -3.203125 0.570312 -3.710938 0.8125 -4.140625 C 1.050781 -4.578125 1.363281 -4.910156 1.75 -5.140625 C 2.144531 -5.378906 2.566406 -5.5 3.015625 -5.5 C 3.523438 -5.5 3.914062 -5.410156 4.1875 -5.234375 C 4.457031 -5.066406 4.679688 -4.878906 4.859375 -4.671875 L 4.78125 -4.46875 L 4.9375 -5.234375 L 6.5 -5.234375 L 6.5 0 L 4.8125 0 L 4.8125 -1.140625 L 4.953125 -0.78125 C 4.929688 -0.78125 4.878906 -0.734375 4.796875 -0.640625 C 4.722656 -0.546875 4.609375 -0.4375 4.453125 -0.3125 C 4.296875 -0.1875 4.101562 -0.0820312 3.875 0 C 3.644531 0.09375 3.375 0.140625 3.0625 0.140625 Z M 3.546875 -1.21875 C 3.742188 -1.21875 3.921875 -1.25 4.078125 -1.3125 C 4.242188 -1.375 4.382812 -1.460938 4.5 -1.578125 C 4.625 -1.691406 4.726562 -1.835938 4.8125 -2.015625 L 4.8125 -3.296875 C 4.75 -3.472656 4.65625 -3.625 4.53125 -3.75 C 4.40625 -3.875 4.253906 -3.96875 4.078125 -4.03125 C 3.898438 -4.101562 3.703125 -4.140625 3.484375 -4.140625 C 3.242188 -4.140625 3.019531 -4.078125 2.8125 -3.953125 C 2.613281 -3.828125 2.453125 -3.65625 2.328125 -3.4375 C 2.210938 -3.21875 2.15625 -2.972656 2.15625 -2.703125 C 2.15625 -2.421875 2.21875 -2.164062 2.34375 -1.9375 C 2.476562 -1.71875 2.648438 -1.539062 2.859375 -1.40625 C 3.066406 -1.28125 3.296875 -1.21875 3.546875 -1.21875 Z M 3.546875 -1.21875 "/></g></g></g><g fill="#000000" fill-opacity="1"><g transform="translate(21.323975, 10.500356)"><g><path d="M 0.859375 -9.453125 L 2.546875 -9.453125 L 2.546875 0 L 0.859375 0 Z M 0.859375 -9.453125 "/></g></g></g><g fill="#000000" fill-opacity="1"><g transform="translate(24.726378, 10.500356)"><g><path d="M 0.859375 -5.234375 L 2.546875 -5.234375 L 2.546875 0 L 0.859375 0 Z M 0.515625 -7.328125 C 0.515625 -7.578125 0.613281 -7.78125 0.8125 -7.9375 C 1.007812 -8.101562 1.21875 -8.1875 1.4375 -8.1875 C 1.664062 -8.1875 1.875 -8.101562 2.0625 -7.9375 C 2.25 -7.78125 2.34375 -7.578125 2.34375 -7.328125 C 2.34375 -7.085938 2.25 -6.890625 2.0625 -6.734375 C 1.875 -6.578125 1.664062 -6.5 1.4375 -6.5 C 1.21875 -6.5 1.007812 -6.578125 0.8125 -6.734375 C 0.613281 -6.890625 0.515625 -7.085938 0.515625 -7.328125 Z M 0.515625 -7.328125 "/></g></g></g><g fill="#000000" fill-opacity="1"><g transform="translate(28.128782, 10.500356)"><g><path d="M 2.390625 -5.234375 L 2.515625 -4.296875 L 2.5 -4.390625 C 2.675781 -4.710938 2.929688 -4.972656 3.265625 -5.171875 C 3.609375 -5.378906 4.019531 -5.484375 4.5 -5.484375 C 5 -5.484375 5.414062 -5.335938 5.75 -5.046875 C 6.082031 -4.753906 6.25 -4.378906 6.25 -3.921875 L 6.25 0 L 4.578125 0 L 4.578125 -3.296875 C 4.566406 -3.523438 4.503906 -3.707031 4.390625 -3.84375 C 4.273438 -3.988281 4.082031 -4.0625 3.8125 -4.0625 C 3.550781 -4.0625 3.328125 -3.976562 3.140625 -3.8125 C 2.953125 -3.644531 2.804688 -3.414062 2.703125 -3.125 C 2.597656 -2.84375 2.546875 -2.515625 2.546875 -2.140625 L 2.546875 0 L 0.859375 0 L 0.859375 -5.234375 Z M 2.390625 -5.234375 "/></g></g></g><g clip-path="url(#856f1b082d)"><g fill="#000000" fill-opacity="1"><g transform="translate(35.24508, 10.500356)"><g><path d="M 3.578125 2.640625 C 3.097656 2.640625 2.695312 2.582031 2.375 2.46875 C 2.050781 2.351562 1.773438 2.21875 1.546875 2.0625 C 1.328125 1.90625 1.128906 1.753906 0.953125 1.609375 L 1.9375 0.453125 C 2.125 0.617188 2.335938 0.78125 2.578125 0.9375 C 2.828125 1.09375 3.148438 1.171875 3.546875 1.171875 C 3.804688 1.171875 4.050781 1.125 4.28125 1.03125 C 4.507812 0.945312 4.691406 0.816406 4.828125 0.640625 C 4.972656 0.460938 5.046875 0.238281 5.046875 -0.03125 L 5.046875 -1.171875 L 5.109375 -0.875 C 4.972656 -0.601562 4.738281 -0.363281 4.40625 -0.15625 C 4.070312 0.0390625 3.632812 0.140625 3.09375 0.140625 C 2.625 0.140625 2.1875 0.0195312 1.78125 -0.21875 C 1.375 -0.46875 1.050781 -0.800781 0.8125 -1.21875 C 0.570312 -1.632812 0.453125 -2.113281 0.453125 -2.65625 C 0.453125 -3.195312 0.578125 -3.679688 0.828125 -4.109375 C 1.085938 -4.535156 1.421875 -4.875 1.828125 -5.125 C 2.234375 -5.375 2.664062 -5.5 3.125 -5.5 C 3.582031 -5.5 3.976562 -5.429688 4.3125 -5.296875 C 4.644531 -5.171875 4.894531 -5.007812 5.0625 -4.8125 L 5 -4.65625 L 5.171875 -5.234375 L 6.71875 -5.234375 L 6.71875 0 C 6.71875 0.507812 6.570312 0.960938 6.28125 1.359375 C 6 1.753906 5.617188 2.066406 5.140625 2.296875 C 4.671875 2.523438 4.148438 2.640625 3.578125 2.640625 Z M 2.140625 -2.703125 C 2.140625 -2.421875 2.203125 -2.164062 2.328125 -1.9375 C 2.460938 -1.71875 2.640625 -1.539062 2.859375 -1.40625 C 3.078125 -1.28125 3.320312 -1.21875 3.59375 -1.21875 C 3.820312 -1.21875 4.023438 -1.25 4.203125 -1.3125 C 4.390625 -1.375 4.550781 -1.460938 4.6875 -1.578125 C 4.832031 -1.691406 4.953125 -1.835938 5.046875 -2.015625 L 5.046875 -3.296875 C 4.972656 -3.472656 4.863281 -3.625 4.71875 -3.75 C 4.570312 -3.875 4.40625 -3.96875 4.21875 -4.03125 C 4.03125 -4.101562 3.820312 -4.140625 3.59375 -4.140625 C 3.320312 -4.140625 3.078125 -4.078125 2.859375 -3.953125 C 2.640625 -3.828125 2.460938 -3.65625 2.328125 -3.4375 C 2.203125 -3.21875 2.140625 -2.972656 2.140625 -2.703125 Z M 2.140625 -2.703125 "/></g></g></g></g></g></g></g><g mask="url(#43e7f035c7)"><g transform="matrix(1, 0, 0, 1, 120, 20)"><g clip-path="url(#d915cd8bcc)"><g fill="#000000" fill-opacity="1"><g transform="translate(0.167144, 10.613618)"><g><path d="M 0.859375 0 L 0.859375 -9.453125 L 2.5 -9.453125 L 2.5 -4.1875 L 2.5 -4.390625 C 2.675781 -4.710938 2.929688 -4.972656 3.265625 -5.171875 C 3.609375 -5.378906 4.019531 -5.484375 4.5 -5.484375 C 5 -5.484375 5.414062 -5.335938 5.75 -5.046875 C 6.082031 -4.753906 6.25 -4.378906 6.25 -3.921875 L 6.25 0 L 4.578125 0 L 4.578125 -3.296875 C 4.566406 -3.523438 4.503906 -3.707031 4.390625 -3.84375 C 4.273438 -3.988281 4.082031 -4.0625 3.8125 -4.0625 C 3.550781 -4.0625 3.328125 -3.976562 3.140625 -3.8125 C 2.953125 -3.644531 2.804688 -3.414062 2.703125 -3.125 C 2.597656 -2.84375 2.546875 -2.515625 2.546875 -2.140625 L 2.546875 0 Z M 0.859375 0 "/></g></g></g><g fill="#000000" fill-opacity="1"><g transform="translate(7.283442, 10.613618)"><g><path d="M 3.4375 0.140625 C 2.800781 0.140625 2.257812 0.0195312 1.8125 -0.21875 C 1.375 -0.457031 1.035156 -0.785156 0.796875 -1.203125 C 0.566406 -1.628906 0.453125 -2.117188 0.453125 -2.671875 C 0.453125 -3.203125 0.585938 -3.675781 0.859375 -4.09375 C 1.128906 -4.519531 1.492188 -4.859375 1.953125 -5.109375 C 2.410156 -5.359375 2.914062 -5.484375 3.46875 -5.484375 C 4.226562 -5.484375 4.847656 -5.265625 5.328125 -4.828125 C 5.804688 -4.398438 6.117188 -3.773438 6.265625 -2.953125 L 2.1875 -1.65625 L 1.828125 -2.5625 L 4.765625 -3.5625 L 4.421875 -3.40625 C 4.359375 -3.613281 4.242188 -3.796875 4.078125 -3.953125 C 3.910156 -4.109375 3.664062 -4.1875 3.34375 -4.1875 C 3.09375 -4.1875 2.875 -4.125 2.6875 -4 C 2.5 -3.882812 2.351562 -3.722656 2.25 -3.515625 C 2.15625 -3.304688 2.109375 -3.054688 2.109375 -2.765625 C 2.109375 -2.441406 2.164062 -2.171875 2.28125 -1.953125 C 2.40625 -1.734375 2.570312 -1.566406 2.78125 -1.453125 C 2.988281 -1.335938 3.21875 -1.28125 3.46875 -1.28125 C 3.65625 -1.28125 3.832031 -1.3125 4 -1.375 C 4.175781 -1.4375 4.347656 -1.519531 4.515625 -1.625 L 5.265625 -0.390625 C 4.984375 -0.222656 4.679688 -0.09375 4.359375 0 C 4.035156 0.09375 3.726562 0.140625 3.4375 0.140625 Z M 3.4375 0.140625 "/></g></g></g><g fill="#000000" fill-opacity="1"><g transform="translate(13.908548, 10.613618)"><g><path d="M 3.0625 0.140625 C 2.582031 0.140625 2.144531 0.046875 1.75 -0.140625 C 1.351562 -0.335938 1.035156 -0.640625 0.796875 -1.046875 C 0.566406 -1.460938 0.453125 -1.984375 0.453125 -2.609375 C 0.453125 -3.203125 0.570312 -3.710938 0.8125 -4.140625 C 1.050781 -4.578125 1.363281 -4.910156 1.75 -5.140625 C 2.144531 -5.378906 2.566406 -5.5 3.015625 -5.5 C 3.523438 -5.5 3.914062 -5.410156 4.1875 -5.234375 C 4.457031 -5.066406 4.679688 -4.878906 4.859375 -4.671875 L 4.78125 -4.46875 L 4.9375 -5.234375 L 6.5 -5.234375 L 6.5 0 L 4.8125 0 L 4.8125 -1.140625 L 4.953125 -0.78125 C 4.929688 -0.78125 4.878906 -0.734375 4.796875 -0.640625 C 4.722656 -0.546875 4.609375 -0.4375 4.453125 -0.3125 C 4.296875 -0.1875 4.101562 -0.0820312 3.875 0 C 3.644531 0.09375 3.375 0.140625 3.0625 0.140625 Z M 3.546875 -1.21875 C 3.742188 -1.21875 3.921875 -1.25 4.078125 -1.3125 C 4.242188 -1.375 4.382812 -1.460938 4.5 -1.578125 C 4.625 -1.691406 4.726562 -1.835938 4.8125 -2.015625 L 4.8125 -3.296875 C 4.75 -3.472656 4.65625 -3.625 4.53125 -3.75 C 4.40625 -3.875 4.253906 -3.96875 4.078125 -4.03125 C 3.898438 -4.101562 3.703125 -4.140625 3.484375 -4.140625 C 3.242188 -4.140625 3.019531 -4.078125 2.8125 -3.953125 C 2.613281 -3.828125 2.453125 -3.65625 2.328125 -3.4375 C 2.210938 -3.21875 2.15625 -2.972656 2.15625 -2.703125 C 2.15625 -2.421875 2.21875 -2.164062 2.34375 -1.9375 C 2.476562 -1.71875 2.648438 -1.539062 2.859375 -1.40625 C 3.066406 -1.28125 3.296875 -1.21875 3.546875 -1.21875 Z M 3.546875 -1.21875 "/></g></g></g><g fill="#000000" fill-opacity="1"><g transform="translate(21.264455, 10.613618)"><g><path d="M 0.859375 -9.453125 L 2.546875 -9.453125 L 2.546875 0 L 0.859375 0 Z M 0.859375 -9.453125 "/></g></g></g><g fill="#000000" fill-opacity="1"><g transform="translate(24.666858, 10.613618)"><g><path d="M 0.859375 -5.234375 L 2.546875 -5.234375 L 2.546875 0 L 0.859375 0 Z M 0.515625 -7.328125 C 0.515625 -7.578125 0.613281 -7.78125 0.8125 -7.9375 C 1.007812 -8.101562 1.21875 -8.1875 1.4375 -8.1875 C 1.664062 -8.1875 1.875 -8.101562 2.0625 -7.9375 C 2.25 -7.78125 2.34375 -7.578125 2.34375 -7.328125 C 2.34375 -7.085938 2.25 -6.890625 2.0625 -6.734375 C 1.875 -6.578125 1.664062 -6.5 1.4375 -6.5 C 1.21875 -6.5 1.007812 -6.578125 0.8125 -6.734375 C 0.613281 -6.890625 0.515625 -7.085938 0.515625 -7.328125 Z M 0.515625 -7.328125 "/></g></g></g><g fill="#000000" fill-opacity="1"><g transform="translate(28.069262, 10.613618)"><g><path d="M 2.390625 -5.234375 L 2.515625 -4.296875 L 2.5 -4.390625 C 2.675781 -4.710938 2.929688 -4.972656 3.265625 -5.171875 C 3.609375 -5.378906 4.019531 -5.484375 4.5 -5.484375 C 5 -5.484375 5.414062 -5.335938 5.75 -5.046875 C 6.082031 -4.753906 6.25 -4.378906 6.25 -3.921875 L 6.25 0 L 4.578125 0 L 4.578125 -3.296875 C 4.566406 -3.523438 4.503906 -3.707031 4.390625 -3.84375 C 4.273438 -3.988281 4.082031 -4.0625 3.8125 -4.0625 C 3.550781 -4.0625 3.328125 -3.976562 3.140625 -3.8125 C 2.953125 -3.644531 2.804688 -3.414062 2.703125 -3.125 C 2.597656 -2.84375 2.546875 -2.515625 2.546875 -2.140625 L 2.546875 0 L 0.859375 0 L 0.859375 -5.234375 Z M 2.390625 -5.234375 "/></g></g></g><g clip-path="url(#ff45881d67)"><g fill="#000000" fill-opacity="1"><g transform="translate(35.18556, 10.613618)"><g><path d="M 3.578125 2.640625 C 3.097656 2.640625 2.695312 2.582031 2.375 2.46875 C 2.050781 2.351562 1.773438 2.21875 1.546875 2.0625 C 1.328125 1.90625 1.128906 1.753906 0.953125 1.609375 L 1.9375 0.453125 C 2.125 0.617188 2.335938 0.78125 2.578125 0.9375 C 2.828125 1.09375 3.148438 1.171875 3.546875 1.171875 C 3.804688 1.171875 4.050781 1.125 4.28125 1.03125 C 4.507812 0.945312 4.691406 0.816406 4.828125 0.640625 C 4.972656 0.460938 5.046875 0.238281 5.046875 -0.03125 L 5.046875 -1.171875 L 5.109375 -0.875 C 4.972656 -0.601562 4.738281 -0.363281 4.40625 -0.15625 C 4.070312 0.0390625 3.632812 0.140625 3.09375 0.140625 C 2.625 0.140625 2.1875 0.0195312 1.78125 -0.21875 C 1.375 -0.46875 1.050781 -0.800781 0.8125 -1.21875 C 0.570312 -1.632812 0.453125 -2.113281 0.453125 -2.65625 C 0.453125 -3.195312 0.578125 -3.679688 0.828125 -4.109375 C 1.085938 -4.535156 1.421875 -4.875 1.828125 -5.125 C 2.234375 -5.375 2.664062 -5.5 3.125 -5.5 C 3.582031 -5.5 3.976562 -5.429688 4.3125 -5.296875 C 4.644531 -5.171875 4.894531 -5.007812 5.0625 -4.8125 L 5 -4.65625 L 5.171875 -5.234375 L 6.71875 -5.234375 L 6.71875 0 C 6.71875 0.507812 6.570312 0.960938 6.28125 1.359375 C 6 1.753906 5.617188 2.066406 5.140625 2.296875 C 4.671875 2.523438 4.148438 2.640625 3.578125 2.640625 Z M 2.140625 -2.703125 C 2.140625 -2.421875 2.203125 -2.164062 2.328125 -1.9375 C 2.460938 -1.71875 2.640625 -1.539062 2.859375 -1.40625 C 3.078125 -1.28125 3.320312 -1.21875 3.59375 -1.21875 C 3.820312 -1.21875 4.023438 -1.25 4.203125 -1.3125 C 4.390625 -1.375 4.550781 -1.460938 4.6875 -1.578125 C 4.832031 -1.691406 4.953125 -1.835938 5.046875 -2.015625 L 5.046875 -3.296875 C 4.972656 -3.472656 4.863281 -3.625 4.71875 -3.75 C 4.570312 -3.875 4.40625 -3.96875 4.21875 -4.03125 C 4.03125 -4.101562 3.820312 -4.140625 3.59375 -4.140625 C 3.320312 -4.140625 3.078125 -4.078125 2.859375 -3.953125 C 2.640625 -3.828125 2.460938 -3.65625 2.328125 -3.4375 C 2.203125 -3.21875 2.140625 -2.972656 2.140625 -2.703125 Z M 2.140625 -2.703125 "/></g></g></g></g></g></g></g></svg>